<?xml version="1.0" standalone="no"?>
<!DOCTYPE svg PUBLIC "-//W3C//DTD SVG 20010904//EN"
 "http://www.w3.org/TR/2001/REC-SVG-20010904/DTD/svg10.dtd">
<svg version="1.0" xmlns="http://www.w3.org/2000/svg"
 width="471.000000pt" height="471.000000pt" viewBox="0 0 471.000000 471.000000"
 preserveAspectRatio="xMidYMid meet">
<metadata>
Created by potrace 1.14, written by Peter Selinger 2001-2017
</metadata>
<g transform="translate(0.000000,471.000000) scale(0.100000,-0.100000)"
fill="#000000" stroke="none">
<path d="M2520 4515 c0 -6 -58 -10 -153 -11 -182 -1 -240 -6 -249 -19 -5 -6
-8 -5 -8 3 0 7 -4 11 -9 8 -5 -3 -26 -9 -47 -12 -48 -8 -69 -12 -69 -14 0 -1
-11 -3 -25 -5 -69 -10 -92 -15 -175 -38 -159 -46 -175 -51 -175 -58 0 -4 -13
-10 -30 -14 -16 -4 -30 -11 -30 -16 0 -6 -5 -7 -10 -4 -6 4 -16 2 -23 -3 -7
-6 -14 -10 -17 -10 -10 1 -100 -45 -106 -53 -3 -5 -14 -9 -25 -9 -11 0 -22 -7
-25 -15 -4 -8 -12 -15 -20 -15 -8 0 -14 -4 -14 -10 0 -5 -7 -10 -15 -10 -8 0
-15 -5 -15 -11 0 -5 -5 -7 -10 -4 -6 3 -13 -1 -16 -9 -3 -9 -12 -16 -19 -16
-6 0 -20 -9 -30 -20 -10 -11 -22 -20 -28 -20 -5 0 -18 -10 -28 -22 -11 -11
-19 -17 -19 -12 0 5 -11 -4 -25 -20 -14 -16 -25 -26 -25 -21 0 4 -11 -4 -25
-19 -14 -15 -25 -25 -25 -22 0 3 -13 -7 -28 -22 -15 -15 -26 -30 -24 -34 2 -5
-1 -8 -6 -8 -19 0 -272 -265 -272 -285 0 -2 -9 -15 -20 -27 -10 -13 -19 -26
-19 -31 -1 -4 -10 -17 -21 -29 -11 -12 -20 -28 -20 -35 0 -7 -4 -13 -9 -13
-10 0 -27 -39 -23 -52 1 -5 -5 -8 -15 -8 -9 0 -13 -3 -10 -7 4 -3 3 -11 -2
-17 -20 -27 -91 -166 -84 -166 4 0 2 -4 -5 -9 -7 -4 -14 -14 -16 -22 -1 -8 -9
-30 -18 -49 -8 -19 -23 -57 -32 -85 -10 -27 -22 -59 -26 -70 -7 -18 -33 -125
-45 -182 -3 -13 -7 -33 -10 -45 -9 -38 -19 -99 -30 -175 -3 -23 -8 -80 -10
-125 -3 -46 -6 -100 -8 -121 -1 -21 0 -40 3 -42 4 -2 3 -29 0 -59 -3 -31 -3
-56 0 -56 9 0 6 -42 -3 -57 -4 -6 -3 -14 2 -18 5 -3 9 -13 9 -23 -1 -32 21
-187 36 -250 4 -12 8 -30 10 -40 21 -93 69 -236 107 -320 15 -34 29 -66 30
-70 5 -21 25 -58 34 -64 5 -4 7 -8 3 -8 -4 0 6 -24 23 -52 16 -29 35 -63 41
-75 6 -13 15 -23 20 -23 5 0 7 -4 4 -9 -3 -4 3 -19 14 -31 11 -13 20 -29 20
-37 0 -7 4 -13 8 -13 4 0 15 -12 24 -27 10 -16 27 -40 40 -55 13 -15 33 -40
45 -55 12 -15 36 -43 52 -61 17 -18 31 -38 31 -44 0 -6 2 -9 5 -7 2 3 47 -36
99 -85 53 -50 101 -96 108 -101 41 -34 148 -115 152 -115 4 0 129 -82 136 -90
3 -3 11 -6 19 -8 8 -2 26 -11 40 -21 30 -20 201 -99 251 -116 3 -1 13 -5 22
-9 9 -4 22 -9 30 -10 7 -2 25 -8 41 -14 27 -11 55 -19 110 -29 15 -3 27 -9 27
-12 0 -4 6 -8 13 -8 6 0 23 -3 37 -6 25 -6 136 -28 155 -31 6 -1 15 -4 20 -6
6 -3 31 -5 57 -5 27 0 48 -2 48 -5 0 -16 355 -11 380 5 9 6 11 4 5 -5 -5 -8
-4 -11 2 -7 6 4 30 9 54 11 68 8 120 16 164 28 22 6 47 11 55 12 46 6 90 19
90 28 0 5 5 6 10 3 6 -3 16 -3 23 2 6 4 17 8 22 8 19 1 100 27 110 35 6 4 25
11 43 15 17 3 32 11 32 17 0 6 3 9 6 5 4 -3 21 1 38 10 17 10 34 16 39 15 4
-1 7 3 7 9 0 5 4 8 9 5 5 -3 20 3 33 14 14 11 28 16 32 13 3 -3 6 -1 6 5 0 7
3 11 8 10 12 -3 62 24 62 34 0 4 7 8 15 8 8 0 24 9 35 20 11 11 20 18 20 15 0
-3 20 8 44 25 25 16 50 30 56 30 6 0 8 5 5 10 -3 6 -2 10 3 10 5 0 18 8 30 18
11 9 30 24 42 32 12 8 38 30 56 47 19 18 34 30 34 27 0 -3 15 9 33 28 19 18
55 52 81 75 25 24 45 43 42 43 -2 0 10 15 27 33 18 18 43 48 57 66 14 18 37
47 52 64 15 18 33 43 40 57 7 14 15 27 18 30 10 8 90 139 90 146 0 3 9 18 19
33 11 15 23 39 26 54 4 15 11 27 15 27 4 0 11 10 15 22 4 13 8 25 9 28 1 3 9
19 17 35 9 17 26 57 38 90 13 33 27 69 32 80 5 11 10 29 12 40 1 11 6 25 9 31
4 6 9 21 12 35 3 13 9 39 15 58 6 19 8 38 5 42 -3 5 -1 9 4 9 4 0 14 37 22 83
7 45 15 91 17 102 23 109 21 455 -3 620 -5 39 -30 161 -40 200 -3 11 -7 30
-10 42 -2 12 -9 34 -14 48 -5 14 -7 25 -4 25 4 0 2 6 -3 13 -6 6 -16 35 -23
62 -7 28 -17 54 -21 60 -5 5 -9 17 -9 27 0 10 -4 18 -8 18 -4 0 -8 8 -9 18 -1
10 -15 47 -32 82 -17 35 -31 69 -31 77 0 7 -4 13 -10 13 -5 0 -10 7 -10 16 0
9 -9 28 -20 44 -11 15 -17 30 -13 34 3 3 2 6 -3 6 -5 0 -23 25 -38 55 -16 30
-34 52 -39 48 -6 -3 -7 -2 -4 4 7 12 -57 105 -67 96 -3 -3 -6 1 -6 10 0 9 -12
30 -27 46 -16 16 -41 46 -58 66 -43 52 -162 175 -170 175 -3 0 -18 14 -32 30
-13 17 -29 30 -33 30 -5 0 -20 10 -33 23 -38 36 -67 57 -77 57 -6 0 -10 5 -10
10 0 6 -4 10 -10 10 -9 0 -35 19 -65 48 -8 6 -18 12 -23 12 -5 0 -19 9 -32 20
-13 11 -29 20 -37 20 -7 0 -13 4 -13 9 0 5 -15 14 -32 22 -18 7 -44 20 -58 29
-37 24 -190 90 -190 82 0 -4 -4 -1 -8 5 -4 7 -17 14 -27 16 -11 2 -33 9 -50
16 -16 7 -42 15 -58 18 -15 3 -30 10 -33 14 -3 5 -9 7 -14 4 -5 -3 -20 -1 -34
5 -15 5 -39 12 -54 15 -15 3 -36 8 -47 10 -11 2 -35 7 -53 9 -17 3 -44 8 -60
11 -44 8 -125 18 -157 18 -16 0 -33 5 -37 11 -5 7 -8 7 -8 1z"/>
</g>
</svg>
